<?xml version="1.0" encoding="utf-8"?>
<!-- Generator: Adobe Illustrator 22.0.0, SVG Export Plug-In . SVG Version: 6.00 Build 0)  -->
<svg version="1.1" id="Layer_1" xmlns="http://www.w3.org/2000/svg" xmlns:xlink="http://www.w3.org/1999/xlink" x="0px" y="0px"
	 viewBox="0 0 1920 1080" style="enable-background:new 0 0 1920 1080;" xml:space="preserve">
<style type="text/css">
	.st0{fill:#74A36D;}
</style>
<path class="st0" d="M0.5,0v1080h1920V0H0.5z M752.7,433.3l117.5-117.5h92L752.7,520.9C706.7,474.9,752.7,433.3,752.7,433.3z
	 M919.7,713.7L809.2,603.3c0,0-43.4-39,0-82.3l197.2,192.8H919.7z M1145,359.8v374.1c0,82.3-44.2,132.1-115.7,132.1
	c41-40.7,51-81.7,51-142.1V352.8c-4.4-36.9-43.4-36.9-43.4-36.9h151.8C1188.6,315.8,1145,315.8,1145,359.8z"/>
</svg>
